<svg xmlns="http://www.w3.org/2000/svg" baseProfile="full" width="385" height="100" version="1.1">
<defs><linearGradient id="a"><stop offset="0" stop-color="#121c67"/><stop offset="0.76" stop-color="#7079bd"/><stop offset="1" stop-color="#7079bd"/></linearGradient></defs>
<path d="m0.02 0 26.39 0c5.97 0 10.49 0.63 13.62 1.92 4.21 1.74 7.81 4.81 10.77 9.2 3 4.43 5.29 9.79 6.85 16.21 1.56 6.38 2.36 14.26 2.36 23.63 0 8.23-0.72 15.34-2.2 21.3-1.8 7.28-4.33 13.17-7.65 17.67-2.52 3.42-5.89 6.06-10.17 7.98-3.2 1.39-7.45 2.27-12.78 2.13l-27.19 0zM14.48 16.9l0 66.22 10.77 0c4.05 0 6.93-0.31 8.73-0.94 2.36-0.8 4.29-2.2 5.85-4.15 1.56-1.95 2.8-5.16 3.76-9.65 0.96-4.46 1.48-10.6 1.48-18.3 0-7.74-0.48-13.66-1.48-17.81-0.96-4.15-2.36-7.35-4.09-9.69C37.75 20.25 35.5 18.68 32.82 17.88 30.82 17.25 26.85 16.94 20.97 16.94ZM129.99 99.99l-16.42 0-6.53-15.89-29.88 0-6.17 15.89-16.02 0 29.12-69.99 15.94 0zM102.19 72.28 91.9 46.32 81.8 72.28ZM134.43 99.99l0-69.99 28.36 0c7.13 0 12.3 0.63 15.54 1.88 3.24 1.25 5.81 3.49 7.77 6.69 1.92 3.21 2.92 6.9 2.92 11.01 0 5.26-1.48 9.58-4.41 13-2.96 3.42-7.33 5.58-13.22 6.48 2.92 1.78 5.33 3.73 7.21 5.89 1.88 2.13 4.45 5.93 7.69 11.36l8.13 13.66-16.1 0-9.73-15.23c-3.44-5.44-5.81-8.89-7.09-10.28-1.28-1.43-2.64-2.37-4.05-2.93C156.02 71.03 153.78 70.75 150.69 70.75l-2.72 0 0 29.21zm13.46-40.4 9.97 0c6.45 0 10.49-0.28 12.1-0.87 1.6-0.56 2.88-1.57 3.76-2.96 0.92-1.39 1.36-3.14 1.36-5.26 0-2.37-0.6-4.25-1.8-5.72-1.2-1.46-2.88-2.37-5.09-2.75-1.08-0.17-4.37-0.24-9.85-0.24l-10.53 0zM218.42 99.99l0-58.17-22.39 0 0-11.85 60 0 0 11.85-22.35 0 0 58.17z" fill="#121c67"/>
<path d="m259.99 30.01 15.18 0 0 37.29c0 5.93 0.2 9.76 0.56 11.5 0.64 2.82 2.2 5.09 4.65 6.8 2.44 1.71 5.81 2.54 10.05 2.54 4.33 0 7.57-0.8 9.73-2.4 2.2-1.6 3.52-3.59 3.97-5.93 0.44-2.34 0.68-6.24 0.68-11.68l0-38.06 15.18 0 0 36.14c0 8.26-0.4 14.12-1.24 17.5-0.84 3.42-2.32 6.27-4.53 8.64-2.2 2.34-5.17 4.22-8.85 5.61-3.68 1.39-8.53 2.09-14.46 2.09-7.17 0-12.62-0.77-16.34-2.27-3.72-1.53-6.65-3.49-8.81-5.93-2.16-2.44-3.56-4.98-4.25-7.63-1-3.94-1.48-9.76-1.48-17.46zM325 99.99l0-69.99 25.39 0c9.61 0 15.9 0.35 18.82 1.05 4.49 1.05 8.25 3.35 11.25 6.87 3.04 3.52 4.53 8.05 4.53 13.63 0 4.29-0.88 7.91-2.6 10.84-1.76 2.93-3.97 5.23-6.65 6.9-2.68 1.67-5.41 2.79-8.21 3.31-3.76 0.66-9.25 1.01-16.42 1.01l-10.29 0 0 26.42zm15.82-58.17 0 19.87 8.65 0c6.25 0 10.41-0.38 12.5-1.12 2.08-0.73 3.76-1.88 4.93-3.45 1.2-1.57 1.8-3.38 1.8-5.44 0-2.54-0.84-4.64-2.52-6.31-1.68-1.64-3.8-2.68-6.37-3.1-1.88-0.31-5.69-0.49-11.37-0.49z" fill="#968508"/>
<path d="m85.01 24.99 174.98 0 30-24.99 30 24.99 45.02 0-30-24.99-280 0z" fill="url(#a)"/>
</svg>
